<?xml version="1.0" encoding="UTF-8" standalone="no"?>
<!-- Created with Inkscape (http://www.inkscape.org/) -->

<svg
   xmlns:dc="http://purl.org/dc/elements/1.1/"
   xmlns:cc="http://creativecommons.org/ns#"
   xmlns:rdf="http://www.w3.org/1999/02/22-rdf-syntax-ns#"
   xmlns:svg="http://www.w3.org/2000/svg"
   xmlns="http://www.w3.org/2000/svg"
   xmlns:sodipodi="http://sodipodi.sourceforge.net/DTD/sodipodi-0.dtd"
   xmlns:inkscape="http://www.inkscape.org/namespaces/inkscape"
   width="1052.3622"
   height="744.09448"
   id="svg3366"
   version="1.1"
   inkscape:version="0.48.3.1 r9886"
   sodipodi:docname="logo_encuesta_canaima.svg">
  <defs
     id="defs3368" />
  <sodipodi:namedview
     id="base"
     pagecolor="#ffffff"
     bordercolor="#666666"
     borderopacity="1.0"
     inkscape:pageopacity="0.0"
     inkscape:pageshadow="2"
     inkscape:zoom="0.53"
     inkscape:cx="529.07721"
     inkscape:cy="414.92727"
     inkscape:document-units="px"
     inkscape:current-layer="layer1"
     showgrid="false"
     borderlayer="false"
     inkscape:window-width="893"
     inkscape:window-height="682"
     inkscape:window-x="234"
     inkscape:window-y="209"
     inkscape:window-maximized="0"
     showguides="false"
     inkscape:snap-global="false">
    <inkscape:grid
       type="xygrid"
       id="grid3513"
       empspacing="5"
       visible="true"
       enabled="true"
       snapvisiblegridlinesonly="true" />
  </sodipodi:namedview>
  <metadata
     id="metadata3371">
    <rdf:RDF>
      <cc:Work
         rdf:about="">
        <dc:format>image/svg+xml</dc:format>
        <dc:type
           rdf:resource="http://purl.org/dc/dcmitype/StillImage" />
        <dc:title />
      </cc:Work>
    </rdf:RDF>
  </metadata>
  <g
     inkscape:label="Capa 1"
     inkscape:groupmode="layer"
     id="layer1"
     transform="translate(0,-308.26753)">
    <g
       id="g2384"
       transform="matrix(2.5921207,0,0,4.6433395,-397.29933,435.14794)">
      <path
         inkscape:connector-curvature="0"
         style="fill:#452f27"
         d="m 236.177,80.96 c 1.891,0 3.525,-0.268 4.904,-0.803 1.378,-0.535 2.575,-1.236 3.589,-2.102 1.015,-0.866 1.857,-1.846 2.529,-2.939 0.672,-1.094 1.225,-2.199 1.658,-3.315 l 8.784,3.315 c -0.707,1.732 -1.629,3.43 -2.77,5.093 -1.14,1.664 -2.563,3.133 -4.271,4.409 -1.709,1.276 -3.743,2.307 -6.102,3.093 -2.357,0.786 -5.133,1.179 -8.322,1.179 -4.171,0 -7.782,-0.621 -10.835,-1.863 -3.055,-1.242 -5.577,-2.974 -7.571,-5.195 -1.994,-2.222 -3.476,-4.859 -4.443,-7.913 -0.969,-3.053 -1.453,-6.392 -1.453,-10.015 0,-3.76 0.484,-7.155 1.453,-10.186 0.968,-3.03 2.433,-5.611 4.393,-7.742 1.959,-2.13 4.438,-3.771 7.434,-4.922 2.996,-1.15 6.522,-1.726 10.579,-1.726 3.145,0 5.896,0.331 8.254,0.991 2.358,0.661 4.397,1.589 6.118,2.786 1.72,1.196 3.145,2.609 4.271,4.238 1.128,1.629 2.012,3.424 2.649,5.383 l -8.887,2.427 c -0.319,-1.025 -0.81,-2.011 -1.471,-2.957 -0.66,-0.945 -1.499,-1.783 -2.512,-2.512 -1.014,-0.729 -2.205,-1.316 -3.572,-1.76 -1.366,-0.444 -2.917,-0.667 -4.647,-0.667 -2.438,0 -4.535,0.393 -6.289,1.179 -1.755,0.786 -3.196,1.909 -4.324,3.367 -1.128,1.458 -1.96,3.208 -2.495,5.247 -0.536,2.04 -0.803,4.324 -0.803,6.853 0,2.507 0.268,4.802 0.803,6.887 0.535,2.085 1.373,3.879 2.512,5.383 1.14,1.504 2.604,2.678 4.393,3.521 1.789,0.845 3.937,1.266 6.444,1.266 z"
         id="path2386" />
      <path
         inkscape:connector-curvature="0"
         style="fill:#452f27"
         d="m 293.031,88.207 -4.272,-12.305 -18.354,0 -4.272,12.305 -10.083,0 17.568,-48.159 11.896,0 17.5,48.159 -9.983,0 z M 281.752,54.471 c -0.272,-0.797 -0.542,-1.601 -0.803,-2.41 -0.262,-0.809 -0.49,-1.549 -0.684,-2.222 -0.194,-0.672 -0.354,-1.225 -0.479,-1.658 -0.125,-0.433 -0.2,-0.672 -0.222,-0.718 -0.023,0.068 -0.091,0.319 -0.205,0.752 -0.114,0.433 -0.269,0.98 -0.461,1.641 -0.194,0.661 -0.422,1.396 -0.685,2.205 -0.262,0.809 -0.529,1.612 -0.803,2.41 l -4.751,13.843 13.843,0 -4.75,-13.843 z"
         id="path2388" />
      <path
         inkscape:connector-curvature="0"
         style="fill:#452f27"
         d="M 333.616,88.207 312.631,51.122 c 0.113,1.003 0.216,2.005 0.308,3.008 0.091,0.866 0.165,1.8 0.222,2.803 0.058,1.003 0.085,1.96 0.085,2.871 l 0,28.403 -8.955,0 0,-48.16 11.52,0 21.294,37.393 c -0.114,-0.957 -0.217,-1.959 -0.308,-3.008 -0.092,-0.889 -0.166,-1.891 -0.223,-3.008 -0.057,-1.116 -0.085,-2.244 -0.085,-3.384 l 0,-27.993 8.955,0 0,48.159 -11.828,10e-4 0,0 z"
         id="path2390" />
      <path
         inkscape:connector-curvature="0"
         style="fill:#452f27"
         d="m 383.635,88.207 -4.272,-12.305 -18.353,0 -4.272,12.305 -10.083,0 17.568,-48.159 11.895,0 17.5,48.159 -9.983,0 z m -11.28,-33.736 c -0.273,-0.797 -0.542,-1.601 -0.804,-2.41 -0.263,-0.809 -0.49,-1.549 -0.685,-2.222 -0.192,-0.672 -0.354,-1.225 -0.479,-1.658 -0.125,-0.433 -0.199,-0.672 -0.222,-0.718 -0.023,0.068 -0.093,0.319 -0.205,0.752 -0.114,0.433 -0.27,0.98 -0.462,1.641 -0.193,0.661 -0.423,1.396 -0.685,2.205 -0.262,0.809 -0.529,1.612 -0.803,2.41 l -4.751,13.843 13.843,0 -4.747,-13.843 z"
         id="path2392" />
      <path
         inkscape:connector-curvature="0"
         style="fill:#452f27"
         d="m 394.893,88.207 0,-48.16 10.083,0 0,48.159 -10.083,10e-4 0,0 z"
         id="path2394" />
      <path
         inkscape:connector-curvature="0"
         style="fill:#452f27"
         d="m 449.083,88.207 0,-29.19 c 0,-1.162 0.017,-2.358 0.052,-3.589 0.032,-1.229 0.073,-2.358 0.119,-3.384 0.067,-1.208 0.125,-2.381 0.171,-3.521 -0.479,1.8 -0.936,3.509 -1.367,5.127 -0.184,0.684 -0.376,1.39 -0.581,2.119 -0.205,0.729 -0.405,1.436 -0.598,2.119 -0.194,0.684 -0.384,1.322 -0.564,1.914 -0.183,0.593 -0.342,1.105 -0.479,1.538 l -8.682,26.865 -7.178,0 -8.682,-26.865 c -0.138,-0.433 -0.291,-0.945 -0.462,-1.538 -0.172,-0.592 -0.354,-1.229 -0.547,-1.914 -0.193,-0.685 -0.394,-1.39 -0.599,-2.119 -0.205,-0.729 -0.41,-1.436 -0.615,-2.119 -0.456,-1.618 -0.935,-3.327 -1.436,-5.127 0.067,1.322 0.137,2.621 0.205,3.896 0.045,1.094 0.091,2.245 0.137,3.452 0.045,1.208 0.068,2.256 0.068,3.145 l 0,29.189 -8.955,0 0,-48.158 13.501,0 8.612,26.934 c 0.229,0.707 0.474,1.572 0.734,2.598 0.261,1.026 0.52,2.017 0.77,2.974 0.273,1.117 0.569,2.279 0.89,3.486 0.317,-1.185 0.626,-2.324 0.923,-3.418 0.137,-0.479 0.273,-0.968 0.41,-1.47 0.137,-0.501 0.272,-0.991 0.41,-1.47 0.137,-0.479 0.272,-0.934 0.41,-1.367 0.137,-0.433 0.262,-0.82 0.375,-1.162 l 8.478,-27.104 13.433,0 0,48.159 -8.953,0 z"
         id="path2396" />
      <path
         inkscape:connector-curvature="0"
         style="fill:#452f27"
         d="m 496.195,88.207 -4.271,-12.305 -18.354,0 -4.271,12.305 -10.083,0 17.567,-48.159 11.896,0 17.5,48.159 -9.984,0 z M 484.917,54.471 c -0.273,-0.797 -0.543,-1.601 -0.805,-2.41 -0.262,-0.809 -0.49,-1.549 -0.684,-2.222 -0.193,-0.672 -0.354,-1.225 -0.479,-1.658 -0.125,-0.433 -0.198,-0.672 -0.222,-0.718 -0.023,0.068 -0.092,0.319 -0.205,0.752 -0.114,0.433 -0.269,0.98 -0.462,1.641 -0.193,0.661 -0.422,1.396 -0.684,2.205 -0.263,0.809 -0.529,1.612 -0.804,2.41 l -4.751,13.843 13.843,0 -4.747,-13.843 z"
         id="path2398" />
    </g>
    <g
       id="g2444"
       transform="matrix(2.5921207,0,0,4.6433395,-397.29933,435.14794)">
      <path
         inkscape:connector-curvature="0"
         style="fill:#beac83"
         d="m 552.987,44.139 c -1.013,-2.75 -5.645,-9.408 -6.656,-10.421 -1.016,-1.014 -3.328,-4.053 -3.907,-5.211 -0.578,-1.158 -5.065,-3.619 -5.937,-3.907 -0.866,-0.29 -1.445,-2.606 -1.445,-2.606 0,0 1.881,0.434 2.314,0.144 0.434,-0.29 1.014,-1.882 0.578,-3.618 -0.436,-1.736 -1.303,-5.065 -2.461,-7.525 -1.157,-2.462 -3.186,-5.067 -5.645,-5.791 -2.462,-0.724 -7.237,0 -9.698,1.013 -2.461,1.014 -3.764,4.343 -3.909,6.369 -0.145,2.027 1.014,3.185 1.304,3.62 l 0.029,0.842 c 0.208,0.369 0.595,1.133 0.626,1.745 0.005,0.104 0.013,0.214 0.021,0.328 l -1.011,3.553 c 0,0 -0.257,1.168 0.627,1.197 0.269,0.009 0.531,-0.143 0.771,-0.135 0.31,0.011 0.571,0.069 0.747,0.119 0.283,1.229 1.342,3.952 1.966,5.048 0.771,0.293 2.531,-0.134 3.014,0.28 0.308,0.265 0.594,0.771 0.854,1.414 -0.715,0.557 -1.663,1.185 -1.663,1.185 l -2.489,1.325 -4.403,3.067 -1.75,0.764 c -2.189,0.648 -5.469,1.595 -5.948,1.595 -0.729,0 -5.003,-0.372 -7.021,-0.459 -2.015,-0.087 -9.646,-0.85 -10.853,-1.42 -1.209,-0.571 -4.117,-1.917 -5.485,-2.01 -1.369,-0.09 -4.502,0.231 -5.87,0.503 -1.368,0.274 -4.466,1.993 -4.789,2.543 -0.354,0.61 -2.938,2.419 -1.114,2.966 1.824,0.549 6.753,-0.025 8.943,0.067 2.188,0.091 5.748,0.182 7.207,1.095 1.461,0.912 11.132,5.942 15.164,5.993 3.405,0.043 6.258,-0.812 8.635,-1.775 0.53,-0.134 1.063,-0.266 1.479,-0.386 2.829,-0.822 5.32,-1.555 5.32,-1.555 l 0.685,0.025 c 1.434,-0.513 3.347,-0.773 5.521,0.051 7.188,2.73 13.511,14.042 13.511,14.042 -5.061,-6.988 -11.059,-12.495 -14.574,-13.509 -0.755,-0.217 -1.519,-0.29 -2.252,-0.28 l -1.414,0.154 c 0,0 -2.803,0.239 -3.934,2.435 -0.31,0.602 -0.36,1.099 -0.751,1.891 0.112,-0.056 0.025,0.22 -0.089,1.462 -0.144,1.594 0.29,4.199 1.448,6.515 1.159,2.316 4.343,7.382 6.079,9.842 1.736,2.461 5.646,9.554 5.646,9.554 0,0 0.726,1.591 0,2.75 -0.725,1.158 -4.95,2.442 -5.967,2.442 -1.013,0 -3.007,1.032 -3.587,1.032 -0.579,0 -1.881,0.578 -3.329,0.578 -1.444,0 -1.445,2.027 -0.29,2.027 1.159,0 3.477,-0.145 3.477,-0.145 l 8.396,0 c -0.58,0.435 -5.935,3.185 -7.093,3.619 -1.158,0.435 -1.882,2.75 -1.303,3.185 0.58,0.434 1.736,0 1.736,0 0,0 0,0 0.868,0.29 0.868,0.29 1.302,0.29 1.302,0.29 0,0 0,0 0.579,0.145 0.579,0.144 1.594,-0.435 1.594,-0.435 0,0 0,0 0.577,0.29 0.579,0.289 1.737,-0.58 1.737,-0.58 0,0 1.737,0 2.17,-0.289 0.438,-0.29 6.515,-1.738 8.54,-2.316 2.028,-0.58 3.187,-1.592 4.055,-2.317 0.867,-0.723 -0.58,-2.749 -0.58,-2.749 l 0.16,0.049 c -2.161,-1.933 -5.814,-6.346 -7.69,-15.136 -1.996,-9.354 -6.78,-14.414 -8.513,-15.794 0,0 7.887,5.41 9.442,14.145 1.557,8.718 4,13.25 7.458,16.999 l 1.024,0.315 c 5.501,0 8.395,-7.381 9.408,-11.144 1.014,-3.764 1.734,-11.435 1.734,-14.33 0.003,-2.901 -2.31,-12.309 -3.326,-15.059 z"
         id="path2446" />
      <path
         inkscape:connector-curvature="0"
         style="fill:#452f27"
         d="m 541.844,61.508 c 0,0 4.341,4.343 4.775,5.356 0.435,1.013 4.054,2.026 6.076,2.17 2.026,0.146 5.646,1.158 6.229,-0.578 0.576,-1.738 0.288,-3.909 -0.87,-4.632 -1.157,-0.723 -1.882,-0.868 -1.882,-0.868 l -0.288,1.446 c 0,0 -1.015,0.29 -1.884,0.29 -0.867,0 -4.053,-2.459 -5.789,-2.459 -1.737,0 -6.367,-0.725 -6.367,-0.725 z"
         id="path2448" />
      <path
         inkscape:connector-curvature="0"
         style="fill:#452f27"
         d="m 525.105,32.531 c 0,0 -1.427,-0.712 -2.374,-0.807 -0.944,-0.094 -2.111,-0.573 -2.699,0.402 -0.589,0.975 -0.424,2.154 0.702,2.783 1.125,0.63 5.426,5.684 5.55,7.014 0.127,1.33 2.444,2.933 3.391,1.243 0.943,-1.688 0.518,-3.1 0.518,-3.1 0,0 -2.008,-3.946 -3.077,-5.372 -1.077,-1.424 -2.011,-2.163 -2.011,-2.163 z"
         id="path2450" />
    </g>
    <g
       id="g2452"
       transform="matrix(2.5921207,0,0,4.6433395,-397.29933,435.14794)">
      <path
         inkscape:connector-curvature="0"
         style="fill:#beac83;fill-opacity:1"
         d="m 161.325,43.894 c 1.013,-2.75 5.646,-9.41 6.658,-10.422 1.014,-1.014 3.329,-4.052 3.907,-5.212 0.58,-1.157 5.065,-3.618 5.936,-3.907 0.867,-0.29 1.446,-2.606 1.446,-2.606 0,0 -1.881,0.435 -2.314,0.146 -0.436,-0.29 -1.014,-1.882 -0.579,-3.619 0.435,-1.738 1.304,-5.066 2.461,-7.527 1.158,-2.461 3.185,-5.066 5.646,-5.791 2.46,-0.724 7.237,0 9.697,1.014 2.461,1.013 3.763,4.343 3.908,6.369 0.146,2.027 -1.014,3.185 -1.304,3.619 l -0.029,0.841 c -0.205,0.369 -0.594,1.136 -0.625,1.747 -0.005,0.102 -0.014,0.213 -0.023,0.328 l 1.012,3.552 c 0,0 0.256,1.169 -0.627,1.197 -0.27,0.009 -0.533,-0.143 -0.771,-0.134 -0.31,0.009 -0.573,0.068 -0.747,0.119 -0.284,1.229 -1.342,3.951 -1.967,5.047 -0.769,0.293 -2.529,-0.132 -3.013,0.28 -0.31,0.264 -0.594,0.771 -0.854,1.415 0.715,0.557 1.663,1.184 1.663,1.184 l 2.489,1.327 4.403,3.065 1.75,0.764 c 2.19,0.649 5.469,1.594 5.948,1.594 0.729,0 5.003,-0.372 7.02,-0.459 2.016,-0.087 9.646,-0.849 10.854,-1.419 1.208,-0.572 4.116,-1.918 5.484,-2.008 1.369,-0.091 4.5,0.229 5.869,0.503 1.369,0.273 4.466,1.992 4.789,2.543 0.356,0.609 2.94,2.419 1.115,2.966 -1.824,0.548 -6.753,-0.027 -8.942,0.065 -2.189,0.091 -5.748,0.183 -7.208,1.095 -1.459,0.914 -11.132,5.942 -15.163,5.993 -3.403,0.043 -6.259,-0.81 -8.635,-1.775 -0.532,-0.133 -1.063,-0.265 -1.479,-0.386 -2.829,-0.82 -5.321,-1.553 -5.321,-1.553 l -0.683,0.025 c -1.435,-0.513 -3.349,-0.775 -5.521,0.05 -7.188,2.73 -13.509,14.042 -13.509,14.042 5.058,-6.987 11.057,-12.493 14.573,-13.508 0.755,-0.218 1.52,-0.292 2.253,-0.28 l 1.413,0.154 c 0,0 2.804,0.238 3.933,2.434 0.309,0.602 0.362,1.1 0.75,1.892 -0.11,-0.056 -0.024,0.22 0.088,1.462 0.146,1.592 -0.29,4.198 -1.447,6.513 -1.157,2.317 -4.342,7.382 -6.08,9.842 -1.735,2.462 -5.645,9.554 -5.645,9.554 0,0 -0.725,1.592 0,2.749 0.723,1.158 4.952,2.444 5.966,2.444 1.014,0 3.008,1.03 3.587,1.03 0.579,0 1.88,0.58 3.328,0.58 1.447,0 1.448,2.026 0.29,2.026 -1.158,0 -3.474,-0.146 -3.474,-0.146 l -8.396,0 c 0.579,0.434 5.935,3.186 7.093,3.62 1.158,0.434 1.882,2.749 1.303,3.184 -0.58,0.433 -1.736,0 -1.736,0 0,0 0,0 -0.868,0.29 -0.869,0.289 -1.303,0.289 -1.303,0.289 0,0 0,0 -0.579,0.146 -0.58,0.146 -1.594,-0.434 -1.594,-0.434 0,0 0,0 -0.579,0.289 -0.578,0.29 -1.735,-0.579 -1.735,-0.579 0,0 -1.736,0 -2.171,-0.29 -0.435,-0.29 -6.515,-1.738 -8.54,-2.316 -2.025,-0.578 -3.185,-1.592 -4.052,-2.316 -0.868,-0.724 0.578,-2.75 0.578,-2.75 l -0.16,0.049 c 2.161,-1.933 5.815,-6.345 7.692,-15.137 1.997,-9.353 6.78,-14.414 8.512,-15.793 0,0 -7.886,5.41 -9.442,14.144 -1.557,8.718 -4.001,13.251 -7.458,17 l -1.023,0.315 c -5.5,0 -8.396,-7.383 -9.408,-11.146 -1.013,-3.764 -1.736,-11.435 -1.736,-14.33 0,-2.895 2.311,-12.303 3.326,-15.053 z"
         id="path2454" />
      <path
         inkscape:connector-curvature="0"
         style="fill:#452f27"
         d="m 172.469,61.262 c 0,0 -4.344,4.342 -4.777,5.355 -0.436,1.012 -4.053,2.026 -6.078,2.171 -2.026,0.145 -5.646,1.157 -6.226,-0.579 -0.578,-1.738 -0.289,-3.907 0.868,-4.633 1.158,-0.723 1.883,-0.868 1.883,-0.868 l 0.29,1.448 c 0,0 1.013,0.29 1.881,0.29 0.868,0 4.053,-2.46 5.79,-2.46 1.737,0 6.369,-0.724 6.369,-0.724 z"
         id="path2456" />
      <path
         inkscape:connector-curvature="0"
         style="fill:#452f27"
         d="m 189.207,32.283 c 0,0 1.427,-0.711 2.373,-0.806 0.946,-0.094 2.111,-0.573 2.702,0.401 0.588,0.975 0.422,2.154 -0.705,2.783 -1.125,0.631 -5.425,5.684 -5.55,7.014 -0.125,1.331 -2.444,2.933 -3.388,1.244 -0.943,-1.688 -0.52,-3.101 -0.52,-3.101 0,0 2.008,-3.945 3.08,-5.371 1.073,-1.426 2.008,-2.164 2.008,-2.164 z"
         id="path2458" />
    </g>
    <g
       id="g2460"
       transform="matrix(2.5921207,0,0,4.6433395,-397.29933,435.14794)">
      <path
         inkscape:connector-curvature="0"
         style="fill:#452f27"
         d="m 267.825,25.457 c -0.01,0.01 4.684,-0.3 12.706,0.374 7.878,0.272 19.696,2.462 32.021,-1.155 5.655,-2.078 12.179,-6.377 11.734,-13.399 0.191,-1.872 0.174,-3.719 0.766,-6.113 0.098,-1.208 1.601,-3.202 3.066,-3.686 1.277,-0.453 2.5,-0.693 3.587,-0.76 4.493,-0.361 8.252,0.494 12.082,0.157 7.945,-0.352 16.345,-1.549 25.103,-0.361 4.146,0.458 9.616,2.377 11.897,7.068 2.253,4.602 1.356,9.131 1.628,12.928 -0.389,8.489 9.359,9.891 15.818,9.854 6.959,0.032 13.462,-0.398 19.325,0.048 11.751,0.374 21.251,0.884 28.714,1.099 14.921,0.511 21.65,0.313 21.647,0.344 0.007,0.033 -17.941,0.23 -41.063,0.148 -5.74,0.095 -11.959,0 -18.015,0.294 -6.148,0.404 -12.61,1.307 -19.379,0.151 -3.209,-0.738 -7.312,-2.175 -9.181,-5.836 -1.905,-3.491 -1.757,-7.005 -1.935,-9.89 0.103,-6 -2.054,-9.769 -6.57,-10.854 -9.21,-2.049 -16.336,-0.717 -20.885,-0.705 -4.698,0.26 -7.45,0.349 -10.015,0.198 -2.621,-0.2 -4.649,-0.662 -8.068,-0.729 -1.575,0.112 -3.979,-0.04 -4.184,1.543 -0.714,2.262 -0.558,5.665 -1.604,9.963 -3.728,8.794 -12.932,11.667 -20.198,12.42 -7.545,0.64 -14.381,-0.215 -20.12,-0.931 -11.446,-1.753 -18.863,-2.25 -18.877,-2.17 z"
         id="path2462" />
    </g>
    <path
       inkscape:connector-curvature="0"
       style="font-size:18.68969536px;font-style:normal;font-variant:normal;font-weight:normal;font-stretch:normal;text-align:start;line-height:125%;writing-mode:lr-tb;text-anchor:start;fill:#452f27;fill-opacity:1;stroke:none;font-family:Liberation Sans;-inkscape-font-specification:Liberation Sans"
       d="m 180.57416,944.0913 0,-39.8318 c -4e-5,-1.4407 0.01,-2.9097 0.0232,-4.40697 0.0156,-1.49713 0.0394,-2.86726 0.0711,-4.11029 0.0317,-1.44069 0.0711,-2.83902 0.11816,-4.19508 -0.22083,1.4408 -0.44946,2.8674 -0.68599,4.2798 -0.20497,1.21479 -0.43369,2.51432 -0.68599,3.89847 -0.23665,1.35597 -0.47313,2.58487 -0.70969,3.68657 l -8.61048,40.6793 -3.16981,0 -8.72878,-40.6793 c -0.0947,-0.4239 -0.19725,-0.9181 -0.30754,-1.4831 -0.0947,-0.565 -0.20496,-1.1582 -0.33118,-1.7797 -0.11018,-0.64977 -0.2286,-1.29949 -0.35481,-1.94924 -0.11053,-0.67796 -0.22087,-1.34183 -0.33117,-1.99162 -0.26811,-1.49715 -0.52831,-3.05091 -0.78063,-4.66118 0.0156,1.58204 0.0394,3.14989 0.0711,4.70358 0.0317,1.32776 0.0554,2.7261 0.0711,4.19506 0.0156,1.4408 0.0232,2.712 0.0232,3.8137 l 0,39.8318 -4.02138,0 0,-59.70536 5.93747,0 8.87073,41.39966 c 0.11042,0.565 0.24443,1.2995 0.40212,2.2035 0.15766,0.8758 0.3075,1.7797 0.44947,2.712 0.14184,0.9323 0.26808,1.822 0.37847,2.6695 0.12617,0.8193 0.21288,1.4548 0.2602,1.9069 0.0471,-0.4523 0.13405,-1.1017 0.26022,-1.9492 0.12618,-0.8475 0.26808,-1.7374 0.42578,-2.6697 0.17348,-0.9322 0.33903,-1.8361 0.4968,-2.7119 0.15765,-0.8757 0.29959,-1.5961 0.42577,-2.1611 l 8.70513,-41.39966 5.79553,0 0,59.70536 -4.0687,0 m 12.06418,0 0,-59.70536 25.28743,0 0,6.6104 -20.76928,0 0,19.15316 19.35,0 0,6.5256 -19.35,0 0,20.8058 21.73916,0 0,6.6104 -26.25731,0 m 45.41807,-53.09496 0,53.09496 -4.49447,0 0,-53.09496 -11.44917,0 0,-6.6104 27.39278,0 0,6.6104 -11.44914,0 m 36.59467,53.09496 -3.8085,-17.4582 -15.18666,0 -3.83215,17.4582 -4.68374,0 13.60177,-59.70536 5.13319,0 13.38888,59.70536 -4.61279,0 m -9.43845,-43.476 c -0.25221,-1.12999 -0.49675,-2.27402 -0.73332,-3.43233 -0.22085,-1.15818 -0.41795,-2.20345 -0.59136,-3.13574 -0.17348,-0.96043 -0.32332,-1.75139 -0.44944,-2.37293 -0.11053,-0.6497 -0.1735,-1.04516 -0.18931,-1.18644 -0.0317,0.1412 -0.10262,0.53674 -0.21289,1.18644 -0.11052,0.6498 -0.26023,1.4549 -0.44946,2.41533 -0.17349,0.9605 -0.37848,2.0199 -0.61503,3.17811 -0.22086,1.15825 -0.44949,2.30235 -0.68602,3.43226 l -4.25792,19.6193 12.4663,0 -4.28159,-19.704 m 46.86104,13.0089 c -3e-5,4.972 -0.41798,9.3647 -1.25372,13.1784 -0.83586,3.7854 -1.9792,6.9634 -3.43003,9.5343 -1.45086,2.5424 -3.16982,4.4775 -5.15684,5.8052 -1.9713,1.2996 -4.10026,1.9492 -6.38692,1.9492 l -12.46629,0 0,-59.70536 11.02331,0 c 2.57053,3e-5 4.93607,0.57915 7.09658,1.73731 2.17627,1.13004 4.04501,2.89564 5.60629,5.29678 1.56124,2.37302 2.77554,5.39574 3.6429,9.06817 0.88313,3.6724 1.32469,8.0511 1.32472,13.136 m -4.54184,0 c -10e-6,-4.0396 -0.32329,-7.4861 -0.96983,-10.3393 -0.64663,-2.8815 -1.55339,-5.24031 -2.72037,-7.07656 -1.16701,-1.83613 -2.56269,-3.17799 -4.18696,-4.02554 -1.62436,-0.87568 -3.4064,-1.31354 -5.34608,-1.3136 l -6.41059,0 0,46.7389 7.42775,0 c 1.75047,0 3.3669,-0.5085 4.84934,-1.5255 1.49814,-1.017 2.79128,-2.5284 3.87943,-4.5341 1.08812,-2.0057 1.93973,-4.5057 2.55479,-7.5003 0.615,-2.9944 0.92251,-6.4691 0.92252,-10.424 m 11.35457,30.4671 0,-59.70536 4.51813,0 0,59.70536 -4.51813,0 m 39.05478,-16.4836 c -2e-5,2.5142 -0.276,4.8308 -0.8279,6.9494 -0.53625,2.1188 -1.37208,3.9549 -2.50748,5.5087 -1.13548,1.5254 -2.57057,2.7261 -4.30524,3.6018 -1.71898,0.8475 -3.76122,1.2712 -6.12673,1.2712 -4.14757,0 -7.38042,-1.2994 -9.69865,-3.8984 -2.31821,-2.599 -3.79273,-6.3562 -4.42352,-11.2716 l 4.37619,-1.5679 c 0.22087,1.5538 0.55983,2.9663 1.01721,4.2374 0.45732,1.2713 1.07237,2.3731 1.8451,3.3053 0.7885,0.9039 1.75834,1.6102 2.90961,2.1186 1.15117,0.5086 2.53108,0.7629 4.13963,0.7629 1.34046,0 2.57053,-0.1979 3.69026,-0.5933 1.11963,-0.4239 2.08161,-1.0594 2.88594,-1.9069 0.80426,-0.8474 1.42714,-1.935 1.86875,-3.2628 0.45731,-1.3559 0.68597,-2.9661 0.686,-4.8306 -3e-5,-1.9493 -0.25248,-3.5311 -0.75697,-4.7459 -0.48891,-1.2148 -1.18279,-2.2176 -2.08164,-3.0086 -0.89895,-0.791 -1.97131,-1.4549 -3.21712,-1.9916 -1.24591,-0.5368 -2.62578,-1.1158 -4.13967,-1.7373 -0.93047,-0.3673 -1.86882,-0.7628 -2.81499,-1.1865 -0.93045,-0.4518 -1.82933,-0.9746 -2.6967,-1.5679 -0.85159,-0.6215 -1.65586,-1.3419 -2.41283,-2.1611 -0.75696,-0.8192 -1.41147,-1.7939 -1.9634,-2.9239 -0.55196,-1.1582 -0.98562,-2.4858 -1.30103,-3.9831 -0.31541,-1.5254 -0.47311,-3.2769 -0.47311,-5.25443 0,-2.82493 0.31542,-5.24023 0.94622,-7.246 0.64657,-2.03389 1.53759,-3.70061 2.67305,-5.00014 1.13543,-1.29945 2.47589,-2.24579 4.02137,-2.83909 1.54547,-0.59319 3.21711,-0.88979 5.01492,-0.88987 2.06589,8e-5 3.83213,0.29655 5.2988,0.88987 1.46658,0.56503 2.70452,1.42662 3.71384,2.58479 1.00929,1.15832 1.81357,2.59904 2.41286,4.32223 0.61499,1.695 1.10387,3.67247 1.46661,5.93236 l -4.44718,1.39835 c -0.22088,-1.44062 -0.54409,-2.72601 -0.96986,-3.85606 -0.41008,-1.12988 -0.95413,-2.07624 -1.63222,-2.83907 -0.67814,-0.76268 -1.50609,-1.34178 -2.48379,-1.73736 -0.96203,-0.39562 -2.09744,-0.59319 -3.40635,-0.5932 -1.54551,10e-6 -2.84656,0.25446 -3.90312,0.76272 -1.04085,0.48031 -1.88457,1.14419 -2.53114,1.99157 -0.63078,0.84755 -1.08815,1.85042 -1.37199,3.00863 -0.26809,1.13002 -0.40217,2.35886 -0.40211,3.68652 -6e-5,1.77978 0.24444,3.24878 0.73329,4.40698 0.50464,1.13 1.18277,2.0763 2.03435,2.839 0.85156,0.7629 1.83722,1.3984 2.9569,1.9069 1.11968,0.5085 2.31031,1.017 3.57196,1.5254 1.02504,0.424 2.0422,0.8617 3.05149,1.3137 1.02505,0.4239 2.00282,0.9463 2.93326,1.5678 0.93042,0.5933 1.79781,1.2995 2.60206,2.1187 0.82003,0.8193 1.52972,1.8222 2.12903,3.0086 0.5992,1.1864 1.06444,2.5848 1.39562,4.195 0.34695,1.6103 0.5204,3.5031 0.52042,5.6782 m 19.30268,-36.61136 0,53.09496 -4.49447,0 0,-53.09496 -11.44915,0 0,-6.6104 27.39275,0 0,6.6104 -11.44913,0 m 40.11931,53.09496 -8.65783,-24.789 -10.38464,0 0,24.789 -4.51817,0 0,-59.70536 15.68345,0 c 1.8924,3e-5 3.56403,0.39562 5.01489,1.18646 1.46659,0.76282 2.69666,1.87864 3.69023,3.34757 0.99351,1.46904 1.75046,3.26287 2.27088,5.38156 0.52041,2.11873 0.78062,4.50585 0.78063,7.16117 -10e-6,1.8928 -0.15784,3.7573 -0.47308,5.5935 -0.29966,1.8362 -0.78067,3.517 -1.44298,5.0425 -0.66236,1.5255 -1.50607,2.8391 -2.5311,3.9409 -1.02508,1.1017 -2.25518,1.8785 -3.69022,2.3305 l 9.46206,25.7212 -5.20412,0 m -0.66236,-42.5438 c -3e-5,-1.80787 -0.17347,-3.37576 -0.5204,-4.70352 -0.34697,-1.32767 -0.85163,-2.42942 -1.51395,-3.30524 -0.66236,-0.90392 -1.46665,-1.56778 -2.41282,-1.99158 -0.94625,-0.45179 -2.01863,-0.6779 -3.21712,-0.67796 l -10.71582,0 0,22.0346 10.90505,0 c 1.29311,0 2.41282,-0.2823 3.35907,-0.8475 0.94618,-0.5931 1.71893,-1.3982 2.3182,-2.4152 0.615,-1.0171 1.06444,-2.2177 1.34835,-3.6019 0.29962,-1.3842 0.44941,-2.8814 0.44944,-4.4917 m 12.60825,42.5438 0,-59.70536 4.51816,0 0,59.70536 -4.51816,0 m 38.72364,-16.8227 c -2e-5,3.0229 -0.33119,5.6077 -0.9935,7.7546 -0.6624,2.1186 -1.55337,3.8561 -2.67305,5.2121 -1.11973,1.3276 -2.42076,2.3023 -3.90314,2.9238 -1.48238,0.6214 -3.04364,0.9322 -4.68372,0.9322 l -13.5308,0 0,-59.70536 12.11149,0 c 1.84508,3e-5 3.49308,0.28264 4.94393,0.84746 1.45084,0.5368 2.68091,1.39842 3.69022,2.58483 1.00927,1.18654 1.77412,2.69786 2.29458,4.53404 0.53615,1.80804 0.80421,3.98325 0.80429,6.52566 -8e-5,1.66677 -0.13405,3.23457 -0.40215,4.70357 -0.25246,1.469 -0.64662,2.8108 -1.18279,4.0256 -0.52041,1.1865 -1.18279,2.2176 -1.98702,3.0932 -0.78855,0.8476 -1.71108,1.4832 -2.76768,1.9069 1.34047,0.2824 2.52322,0.8334 3.54831,1.6526 1.04079,0.8193 1.90816,1.8646 2.60206,3.1358 0.69386,1.2712 1.22214,2.7543 1.5849,4.4492 0.36271,1.6668 0.54405,3.4747 0.54407,5.4238 m -6.48154,-27.41607 c -1e-5,-3.22041 -0.61503,-5.52276 -1.84512,-6.90703 -1.23006,-1.38414 -3.01214,-2.07624 -5.34606,-2.0763 l -7.59333,0 0,18.899 7.59333,0 c 1.32466,0 2.44435,-0.2264 3.35904,-0.6781 0.91464,-0.4801 1.65583,-1.144 2.2236,-1.9916 0.56769,-0.8756 0.97772,-1.9209 1.23007,-3.1356 0.25219,-1.2148 0.37846,-2.5849 0.37847,-4.11037 m 1.91607,26.78057 c -10e-6,-1.8927 -0.19726,-3.5028 -0.5914,-4.8307 -0.37847,-1.3277 -0.93044,-2.4153 -1.65582,-3.2628 -0.72547,-0.8475 -1.60073,-1.4689 -2.62574,-1.8645 -1.00934,-0.3956 -2.14478,-0.5932 -3.40636,-0.5932 l -8.42126,0 0,21.5262 8.77609,0 c 1.15116,0 2.20778,-0.1698 3.16981,-0.5085 0.97772,-0.3389 1.81355,-0.9322 2.50746,-1.7798 0.70963,-0.8474 1.26159,-1.9774 1.65582,-3.3899 0.39427,-1.4125 0.59139,-3.178 0.5914,-5.2968 m 24.4595,18.3057 c -1.82933,0 -3.56404,-0.4379 -5.20412,-1.3136 -1.64012,-0.8757 -3.08305,-2.2317 -4.32893,-4.068 -1.23005,-1.8644 -2.20783,-4.2091 -2.93324,-7.0341 -0.72544,-2.8531 -1.08815,-6.229 -1.08815,-10.1275 l 0,-38.00966 4.51818,0 0,37.33176 c -3e-5,3.0227 0.22084,5.5934 0.66235,7.7122 0.45732,2.0904 1.08812,3.7995 1.89243,5.1272 0.80424,1.3278 1.75044,2.3023 2.8386,2.9238 1.10391,0.5933 2.3103,0.8899 3.61927,0.8899 1.29314,0 2.51531,-0.3107 3.66656,-0.9322 1.15121,-0.6215 2.16049,-1.6103 3.02788,-2.9662 0.86731,-1.356 1.54545,-3.1217 2.03433,-5.2968 0.50461,-2.2035 0.75694,-4.873 0.75696,-8.0087 l 0,-36.78096 4.49451,0 0,37.24696 c -3e-5,3.9833 -0.37065,7.4439 -1.11182,10.3818 -0.72544,2.9097 -1.71894,5.325 -2.98053,7.2459 -1.26165,1.9211 -2.74403,3.3476 -4.4472,4.2799 -1.68746,0.9322 -3.49311,1.3983 -5.41708,1.3983 m 36.45276,-54.83236 c -1.8924,4e-5 -3.57191,0.56507 -5.03854,1.69499 -1.45086,1.12999 -2.67306,2.74023 -3.66655,4.83067 -0.9778,2.09051 -1.71898,4.6047 -2.22362,7.5426 -0.50463,2.938 -0.75696,6.2008 -0.75696,9.7885 0,3.5877 0.26811,6.8787 0.80428,9.8732 0.55194,2.9662 1.33258,5.5228 2.34187,7.6698 1.02506,2.147 2.27092,3.8136 3.73754,5.0001 1.48238,1.1865 3.14612,1.7797 4.99125,1.7797 1.29314,0 2.46802,-0.2965 3.52464,-0.8897 1.07234,-0.6216 2.03432,-1.4833 2.88591,-2.5849 0.86734,-1.1018 1.64008,-2.4013 2.31825,-3.8985 0.67807,-1.5255 1.27735,-3.2063 1.79778,-5.0425 l 3.69021,3.3052 c -0.5993,2.2317 -1.34048,4.308 -2.22358,6.2289 -0.88317,1.9211 -1.92397,3.5878 -3.12251,5.0002 -1.18277,1.4125 -2.5311,2.5283 -4.04504,3.3476 -1.49819,0.7911 -3.1777,1.1865 -5.03856,1.1865 -2.69671,0 -5.06224,-0.7627 -7.09656,-2.2882 -2.0186,-1.5537 -3.71388,-3.7006 -5.08589,-6.4408 -1.35624,-2.7686 -2.3734,-6.0454 -3.05154,-9.831 -0.67812,-3.7854 -1.01716,-7.9239 -1.01716,-12.4156 0,-4.6612 0.35482,-8.8703 1.06448,-12.6276 0.72542,-3.7571 1.77415,-6.94927 3.14615,-9.57654 1.38777,-2.6554 3.09097,-4.68936 5.10954,-6.10192 2.01856,-1.44063 4.32099,-2.16099 6.90734,-2.16107 3.54828,8e-5 6.51304,1.24304 8.89435,3.72896 2.38128,2.486 4.13175,6.17257 5.25149,11.05967 l -4.28163,2.5425 c -0.31541,-1.41249 -0.7412,-2.7543 -1.27738,-4.02565 -0.5362,-1.29934 -1.2064,-2.44346 -2.01068,-3.43228 -0.80431,-0.98866 -1.75052,-1.77966 -2.83865,-2.37293 -1.07238,-0.59321 -2.30244,-0.88986 -3.69023,-0.8899 m 20.74565,53.98486 0,-59.70536 4.51819,0 0,59.70536 -4.51819,0 m 44.32992,-30.1281 c -3e-5,4.6612 -0.37855,8.8986 -1.13545,12.7123 -0.74123,3.8137 -1.82148,7.0766 -3.24076,9.7885 -1.41935,2.7119 -3.15409,4.8024 -5.20416,6.2713 -2.05013,1.469 -4.37626,2.2035 -6.97829,2.2035 -2.74405,0 -5.14897,-0.7627 -7.21488,-2.2882 -2.06588,-1.5537 -3.78483,-3.7006 -5.15681,-6.4408 -1.37202,-2.7686 -2.40495,-6.0454 -3.09886,-9.831 -0.69386,-3.7854 -1.04082,-7.9239 -1.04082,-12.4156 0,-4.6612 0.36273,-8.8703 1.08815,-12.6276 0.72541,-3.7571 1.7899,-6.94927 3.19346,-9.57654 1.40354,-2.6554 3.13037,-4.68936 5.18048,-6.10192 2.0659,-1.44063 4.43142,-2.16099 7.09657,-2.16107 2.64939,8e-5 4.99913,0.72044 7.0493,2.16107 2.06586,1.44078 3.79265,3.48887 5.18048,6.14429 1.40351,2.65549 2.468,5.86183 3.19344,9.61897 0.7254,3.7572 1.08812,7.9382 1.08815,12.5428 m -4.61279,0 c -3e-5,-3.5877 -0.26022,-6.8505 -0.78062,-9.7885 -0.50466,-2.9379 -1.26163,-5.45209 -2.27089,-7.5426 -0.99353,-2.09044 -2.2315,-3.70068 -3.71386,-4.83067 -1.48243,-1.12992 -3.19347,-1.69495 -5.13321,-1.69499 -1.98706,4e-5 -3.72963,0.56507 -5.22777,1.69499 -1.49823,1.12999 -2.75193,2.74023 -3.76119,4.83067 -0.99354,2.09051 -1.74262,4.6047 -2.24727,7.5426 -0.48888,2.938 -0.73331,6.2008 -0.73331,9.7885 0,3.5877 0.2522,6.8787 0.75695,9.8732 0.52044,2.9662 1.27738,5.5369 2.27095,7.7121 1.00925,2.147 2.25509,3.8278 3.7375,5.0426 1.49814,1.1865 3.21708,1.7797 5.15685,1.7797 2.08164,0 3.87156,-0.6073 5.36972,-1.8222 1.51391,-1.2146 2.75189,-2.8954 3.71389,-5.0424 0.97771,-2.1752 1.69527,-4.76 2.15262,-7.7546 0.47308,-2.9943 0.70961,-6.2572 0.70964,-9.7884 m -16.06187,-34.70456 0,-0.8475 5.13316,-9.57659 4.89664,0 0,1.22888 -7.33311,9.19521 -2.69669,0 m 48.56421,64.83266 -17.83604,-50.84917 c 0.0317,1.38428 0.0711,2.75439 0.11817,4.11033 0.0317,1.15828 0.0554,2.38717 0.0711,3.68654 0.0317,1.2713 0.0471,2.4013 0.0471,3.39 l 0,39.6623 -4.02138,0 0,-59.70536 5.25143,0 18.0253,51.18806 c -3e-5,0 -0.0472,-1.3841 -0.14202,-4.1526 -0.0317,-1.1865 -0.0629,-2.4718 -0.0947,-3.8561 -0.0317,-1.4124 -0.0472,-2.7543 -0.0472,-4.0255 l 0,-39.15386 4.06871,0 0,59.70536 -5.44072,0 m 25.28751,-30.1281 c 0,-4.6612 0.34691,-8.8703 1.04081,-12.6276 0.70965,-3.7571 1.75836,-6.94927 3.14616,-9.57654 1.40352,-2.6554 3.13825,-4.68936 5.20412,-6.10192 2.06588,-1.44063 4.46293,-2.16099 7.19121,-2.16107 2.05012,8e-5 3.84792,0.32501 5.3934,0.97463 1.54543,0.64973 2.88592,1.582 4.0214,2.79667 1.13542,1.2148 2.09741,2.69787 2.88592,4.44932 0.78847,1.72326 1.45875,3.67248 2.01071,5.84765 l -4.30525,2.28819 c -0.41007,-1.46891 -0.90683,-2.79665 -1.49029,-3.98314 -0.56774,-1.2147 -1.26164,-2.2458 -2.08165,-3.09336 -0.8201,-0.84744 -1.77416,-1.49714 -2.8623,-1.94923 -1.07238,-0.48017 -2.30243,-0.72032 -3.69021,-0.72036 -2.0186,4e-5 -3.77696,0.56507 -5.27511,1.69499 -1.48242,1.12999 -2.71248,2.74023 -3.69024,4.83067 -0.97774,2.09051 -1.71105,4.6047 -2.19993,7.5426 -0.47313,2.938 -0.70968,6.2008 -0.70966,9.7885 -2e-5,3.5877 0.2602,6.8787 0.78062,9.8732 0.5204,2.9662 1.29315,5.5369 2.31823,7.7121 1.02507,2.147 2.29454,3.8278 3.80849,5.0426 1.5297,1.1865 3.29595,1.7797 5.29878,1.7797 1.3089,0 2.51533,-0.1978 3.61925,-0.5932 1.10391,-0.3957 2.0974,-0.904 2.98056,-1.5256 0.89885,-0.6496 1.68736,-1.3559 2.36551,-2.1187 0.67808,-0.7909 1.24583,-1.5819 1.7032,-2.3728 l 0,-10.7631 -9.95887,0 0,-6.7799 14.1222,0 0,20.5939 c -0.74124,1.356 -1.61647,2.6554 -2.62575,3.8984 -0.99356,1.2147 -2.11322,2.2882 -3.35907,3.2205 -1.24583,0.9322 -2.60996,1.6667 -4.09233,2.2034 -1.48243,0.5368 -3.06733,0.8051 -4.7547,0.8051 -2.8071,0 -5.25939,-0.7627 -7.3568,-2.2882 -2.09743,-1.5537 -3.84792,-3.7006 -5.25144,-6.4408 -1.3878,-2.7686 -2.43651,-6.0454 -3.14616,-9.831 -0.6939,-3.7854 -1.04081,-7.9239 -1.04081,-12.4156 m 60.81763,30.1281 -17.83605,-50.84917 c 0.0317,1.38428 0.0711,2.75439 0.11817,4.11033 0.0317,1.15828 0.0554,2.38717 0.0711,3.68654 0.0317,1.2713 0.0471,2.4013 0.0472,3.39 l 0,39.6623 -4.02135,0 0,-59.70536 5.25144,0 18.02527,51.18806 c -3e-5,0 -0.0473,-1.3841 -0.14204,-4.1526 -0.0317,-1.1865 -0.0629,-2.4718 -0.0947,-3.8561 -0.0317,-1.4124 -0.0472,-2.7543 -0.0471,-4.0255 l 0,-39.15386 4.0687,0 0,59.70536 -5.4407,0 m 26.70677,0.8475 c -1.82935,0 -3.56405,-0.4379 -5.20414,-1.3136 -1.64013,-0.8757 -3.08308,-2.2317 -4.32894,-4.068 -1.23006,-1.8644 -2.20779,-4.2091 -2.93324,-7.0341 -0.72542,-2.8531 -1.08815,-6.229 -1.08815,-10.1275 l 0,-38.00966 4.5182,0 0,37.33176 c -6e-5,3.0227 0.22082,5.5934 0.66232,7.7122 0.45732,2.0904 1.08813,3.7995 1.89242,5.1272 0.80427,1.3278 1.75045,2.3023 2.8386,2.9238 1.10392,0.5933 2.31035,0.8899 3.61931,0.8899 1.29312,0 2.51529,-0.3107 3.66654,-0.9322 1.15116,-0.6215 2.16047,-1.6103 3.0279,-2.9662 0.8673,-1.356 1.54541,-3.1217 2.03432,-5.2968 0.50461,-2.2035 0.75692,-4.873 0.75695,-8.0087 l 0,-36.78096 4.49449,0 0,37.24696 c -1e-5,3.9833 -0.37061,7.4439 -1.11178,10.3818 -0.72544,2.9097 -1.71899,5.325 -2.98057,7.2459 -1.26163,1.9211 -2.744,3.3476 -4.44718,4.2799 -1.68744,0.9322 -3.49311,1.3983 -5.41705,1.3983 m 17.71778,0 9.72232,-63.73094 3.7375,0 -9.62767,63.73094 -3.83215,0 m 17.41027,-0.8475 0,-59.70536 4.51814,0 0,53.09496 16.84254,0 0,6.6104 -21.36068,0 m 27.46372,0 0,-59.70536 4.51818,0 0,59.70536 -4.51818,0 m 34.56035,0 -17.83609,-50.84917 c 0.0317,1.38428 0.0711,2.75439 0.11818,4.11033 0.0317,1.15828 0.0553,2.38717 0.0711,3.68654 0.0317,1.2713 0.0472,2.4013 0.0472,3.39 l 0,39.6623 -4.02139,0 0,-59.70536 5.25148,0 18.02529,51.18806 c -1e-5,0 -0.0472,-1.3841 -0.14201,-4.1526 -0.0317,-1.1865 -0.0629,-2.4718 -0.0946,-3.8561 -0.0317,-1.4124 -0.0473,-2.7543 -0.0473,-4.0255 l 0,-39.15386 4.06869,0 0,59.70536 -5.4407,0 m 26.70672,0.8475 c -1.82935,0 -3.56405,-0.4379 -5.20417,-1.3136 -1.64009,-0.8757 -3.08304,-2.2317 -4.3289,-4.068 -1.23007,-1.8644 -2.2078,-4.2091 -2.93324,-7.0341 -0.72544,-2.8531 -1.08815,-6.229 -1.08815,-10.1275 l 0,-38.00966 4.51818,0 0,37.33176 c -4e-5,3.0227 0.22084,5.5934 0.66234,7.7122 0.45732,2.0904 1.08812,3.7995 1.89242,5.1272 0.80425,1.3278 1.75045,2.3023 2.83862,2.9238 1.1039,0.5933 2.31033,0.8899 3.61926,0.8899 1.29314,0 2.5153,-0.3107 3.66654,-0.9322 1.15122,-0.6215 2.1605,-1.6103 3.02789,-2.9662 0.86731,-1.356 1.54545,-3.1217 2.03436,-5.2968 0.5046,-2.2035 0.75691,-4.873 0.75694,-8.0087 l 0,-36.78096 4.4945,0 0,37.24696 c -1e-5,3.9833 -0.3706,7.4439 -1.11178,10.3818 -0.72545,2.9097 -1.71899,5.325 -2.98057,7.2459 -1.26164,1.9211 -2.74401,3.3476 -4.44718,4.2799 -1.68744,0.9322 -3.49311,1.3983 -5.41706,1.3983 m 44.02242,-0.8475 -10.00617,-26.1025 -10.21905,26.1025 -4.99126,0 12.67921,-31.018 -11.70935,-28.68736 4.99126,0 9.27285,23.43296 9.01264,-23.43296 4.99126,0 -11.40184,28.39076 12.37171,31.3146 -4.99126,0"
       id="text2514" />
  </g>
</svg>
